<svg xmlns="http://www.w3.org/2000/svg" xmlns:xlink="http://www.w3.org/1999/xlink" version="1.1" x="0px" y="0px" viewBox="0 0 32 40" style="enable-background:new 0 0 32 32;" xml:space="preserve"><path d="M18.6845703,23.4121094V5.2890625c2.9619141,2.2363281,5.5546875,1.6196289,7.3193359,0.5703125  c0.4746094-0.2827148,0.6298828-0.8959961,0.3476562-1.3706055c-0.2832031-0.4750977-0.8974609-0.6298828-1.3710938-0.3481445  c-1.3730469,0.8178711-3.5488281,1.5170898-6.5537109-1.8105469c-0.2783203-0.3081055-0.7158203-0.4111328-1.1015625-0.2631836  C16.9394531,2.215332,16.6845703,2.5864258,16.6845703,3v15.6934814c-1.1872559-1.1548462-2.8046265-1.869751-4.5878906-1.869751  c-3.6328125,0-6.5888672,2.9555664-6.5888672,6.5883789S8.4638672,30,12.0966797,30S18.6845703,27.0449219,18.6845703,23.4121094z"/><text x="0" y="47" fill="#000000" font-size="5px" font-weight="bold" font-family="'Helvetica Neue', Helvetica, Arial-Unicode, Arial, Sans-serif">Created by Riyan Resdian</text><text x="0" y="52" fill="#000000" font-size="5px" font-weight="bold" font-family="'Helvetica Neue', Helvetica, Arial-Unicode, Arial, Sans-serif">from the Noun Project</text></svg>