<svg xmlns="http://www.w3.org/2000/svg" xmlns:xlink="http://www.w3.org/1999/xlink" version="1.1" x="0px" y="0px" viewBox="0 0 32 40" style="enable-background:new 0 0 32 32;" xml:space="preserve"><path d="M18.6799927,23.4099731v-5.8499756L7.8300171,28.4099731C8.9799805,29.4099731,10.4699707,30,12.0999756,30  C15.7299805,30,18.6799927,27.039978,18.6799927,23.4099731z"/><path d="M3,30c0.2558594,0,0.5117188-0.0976562,0.7070312-0.2929688l26-26c0.390625-0.390625,0.390625-1.0234375,0-1.4140625  s-1.0234375-0.390625-1.4140625,0l-2.0631104,2.0631104c-0.3109131-0.3585815-0.8328857-0.4644775-1.2498779-0.2160645  c-0.5499878,0.3299561-1.2199707,0.6299438-2.0299683,0.6699829c-1.210022,0.0700073-2.7200317-0.4800415-4.5200195-2.4800415  c-0.2799683-0.3099976-0.7199707-0.4099731-1.0999756-0.2599487C16.9400024,2.2199707,16.6799927,2.5899658,16.6799927,3v10.9059448  l-3.0924683,3.0924683c-0.4782715-0.1120605-0.9738159-0.1784058-1.4875488-0.1784058  c-0.4400024,0-0.8699951,0.039978-1.2799683,0.1199951c-2.6099854,0.5199585-4.6699829,2.5799561-5.1900024,5.1900024  c-0.0800171,0.4099731-0.1199951,0.8399658-0.1199951,1.2799683c0,0.5137329,0.0663452,1.0092773,0.1784058,1.4875488  l-3.3954468,3.3954468c-0.390625,0.3901367-0.390625,1.0234375,0,1.4140625C2.4882812,29.9023438,2.7441406,30,3,30z   M18.6799927,5.289978c0.8699951,0.6600342,1.710022,1.0700073,2.5,1.289978  c0.9800415,0.2807617,1.8911133,0.2778931,2.7144165,0.1115723l-5.2144165,5.2144165V5.289978z"/><text x="0" y="47" fill="#000000" font-size="5px" font-weight="bold" font-family="'Helvetica Neue', Helvetica, Arial-Unicode, Arial, Sans-serif">Created by Riyan Resdian</text><text x="0" y="52" fill="#000000" font-size="5px" font-weight="bold" font-family="'Helvetica Neue', Helvetica, Arial-Unicode, Arial, Sans-serif">from the Noun Project</text></svg>